<svg height="448pt" viewBox="0 0 448 448" width="448pt" xmlns="http://www.w3.org/2000/svg"><path d="m88 88h16.007812v16h-16.007812zm0 0"/><path d="m24 24h144v24h-144zm0 0"/><path d="m144 200h16.007812v16h-16.007812zm0 0"/><path d="m144 144h16.007812v16h-16.007812zm0 0"/><path d="m144 88h16.007812v16h-16.007812zm0 0"/><path d="m88 144h16.007812v16h-16.007812zm0 0"/><path d="m8 240h176c4.417969 0 8-3.582031 8-8v-224c0-4.417969-3.582031-8-8-8h-176c-4.417969 0-8 3.582031-8 8v224c0 4.417969 3.582031 8 8 8zm56-24c0 8.835938-7.164062 16-16 16h-16c-8.835938 0-16-7.164062-16-16v-16c0-8.835938 7.164062-16 16-16h16c8.835938 0 16 7.164062 16 16zm0-56c0 8.835938-7.164062 16-16 16h-16c-8.835938 0-16-7.164062-16-16v-16c0-8.835938 7.164062-16 16-16h16c8.835938 0 16 7.164062 16 16zm0-56c0 8.835938-7.164062 16-16 16h-16c-8.835938 0-16-7.164062-16-16v-16c0-8.835938 7.164062-16 16-16h16c8.835938 0 16 7.164062 16 16zm56 112c0 8.835938-7.164062 16-16 16h-16c-8.835938 0-16-7.164062-16-16v-16c0-8.835938 7.164062-16 16-16h16c8.835938 0 16 7.164062 16 16zm0-56c0 8.835938-7.164062 16-16 16h-16c-8.835938 0-16-7.164062-16-16v-16c0-8.835938 7.164062-16 16-16h16c8.835938 0 16 7.164062 16 16zm0-56c0 8.835938-7.164062 16-16 16h-16c-8.835938 0-16-7.164062-16-16v-16c0-8.835938 7.164062-16 16-16h16c8.835938 0 16 7.164062 16 16zm56 112c0 8.835938-7.164062 16-16 16h-16c-8.835938 0-16-7.164062-16-16v-16c0-8.835938 7.164062-16 16-16h16c8.835938 0 16 7.164062 16 16zm0-56c0 8.835938-7.164062 16-16 16h-16c-8.835938 0-16-7.164062-16-16v-16c0-8.835938 7.164062-16 16-16h16c8.835938 0 16 7.164062 16 16zm0-56c0 8.835938-7.164062 16-16 16h-16c-8.835938 0-16-7.164062-16-16v-16c0-8.835938 7.164062-16 16-16h16c8.835938 0 16 7.164062 16 16zm-168-96h176v56h-176zm0 0"/><path d="m32 144h16.007812v16h-16.007812zm0 0"/><path d="m32 200h16.007812v16h-16.007812zm0 0"/><path d="m88 200h16.007812v16h-16.007812zm0 0"/><path d="m32 88h16.007812v16h-16.007812zm0 0"/><path d="m319.59375 410.34375c-.671875.664062-1.453125 1.207031-2.3125 1.601562l-41.9375 19.3125c-3.039062 1.394532-6.628906.75-8.992188-1.617187-2.367187-2.363281-3.011718-5.953125-1.617187-8.992187l19.3125-41.9375c.394531-.859376.933594-1.640626 1.601563-2.3125l106.351562-106.335938v-142.0625h-96v-96h-88v200c0 13.253906-10.746094 24-24 24h-128v192h336v-110.054688zm-47.59375-258.34375h96v16h-96zm0 32h96v16h-96zm0 32h96v16h-96zm0 32h96v16h-96zm-104 184c-44.183594 0-80-35.816406-80-80s35.816406-80 80-80 80 35.816406 80 80c-.046875 44.164062-35.835938 79.953125-80 80zm88-168h-16v-16h16zm0-32h-16v-16h16zm0-32h-16v-16h16zm0-32h-16v-16h16zm0 0"/><path d="m312 112h68.6875l-68.6875-68.6875zm0 0"/><path d="m445.425781 261.886719c3.121094-3.121094 3.121094-8.1875 0-11.3125-3.164062-3.023438-8.144531-3.023438-11.304687 0l-5.664063 5.65625 11.3125 11.3125zm0 0"/><path d="m411.550781 273.136719 5.589844-5.585938 11.3125 11.3125-5.589844 5.589844zm0 0"/><path d="m288.328125 407.671875 20.960937-9.65625 102.261719-102.253906-11.3125-11.3125-102.253906 102.261719zm0 0"/><path d="m168 288c-35.347656 0-64 28.652344-64 64s28.652344 64 64 64 64-28.652344 64-64c-.039062-35.328125-28.671875-63.960938-64-64zm0 56c17.945312 0 32 10.535156 32 24 0 11.367188-10.070312 20.574219-24 23.199219v8.800781h-16v-8.800781c-13.929688-2.605469-24-11.816407-24-23.199219h16c0 3.265625 6.230469 8 16 8s16-4.734375 16-8-6.230469-8-16-8c-17.945312 0-32-10.535156-32-24 0-11.367188 10.070312-20.574219 24-23.199219v-8.800781h16v8.800781c13.929688 2.605469 24 11.816407 24 23.199219h-16c0-3.265625-6.230469-8-16-8s-16 4.734375-16 8 6.230469 8 16 8zm0 0"/></svg>