<svg id="Capa_1" enable-background="new 0 0 509.749 509.749" height="512" viewBox="0 0 509.749 509.749" width="512" xmlns="http://www.w3.org/2000/svg"><path d="m396.891 268.139c2.868 27.226-.83 55.398-12.16 82.01v.01l39.33 50.795c3.52 4.547 10.12 5.171 14.479 1.421 35.316-30.392 58.684-74.262 62.147-123.628.403-5.747-4.221-10.607-9.982-10.607h-93.814z"/><path d="m298.141 10.004v124.205c33.32 14.42 60.98 39.53 78.64 70.97h114.182c5.646 0 10.215-4.673 9.997-10.315-4.065-105.586-88.248-189.569-192.395-194.851-5.682-.288-10.424 4.302-10.424 9.991z"/><path d="m234.514 450.78c-90.907.94-166.032-72.765-166.767-163.674-.741-91.62 73.582-166.398 165.035-166.398v-48.711c0-5.7-4.759-10.26-10.453-9.999-118.849 5.46-213.547 103.545-213.548 223.751 0 123.95 101.524 224.793 225.471 223.996 46.743-.301 90.074-14.912 125.844-39.67 4.706-3.257 5.696-9.812 2.192-14.338l-29.828-38.527c-27.29 20.734-61.193 33.19-97.946 33.57z"/><path d="m97.741 285.749c0 74.46 60.58 135.04 135.04 135.04 74.452 0 135.04-60.568 135.04-135.04 0-74.458-60.588-135.04-135.04-135.04-74.46 0-135.04 60.58-135.04 135.04zm150.04-89.71v14.31c15.378 0 28.991 6.541 38.59 16.78 5.66 6.04 5.35 15.54-.69 21.2-6.003 5.624-15.457 5.409-21.2-.69-4.3-4.58-10.16-7.24-16.09-7.29-12.138 0-20.343 0-32.43 0-8.407 0-15.2 6.811-15.2 15.2 0 8.38 6.82 15.2 15.21 15.2h33.63c24.92 0 45.2 20.28 45.2 45.2 0 23.286-17.911 45.21-47.02 45.21v14.3c0 8.28-6.71 15-15 15-8.28 0-15-6.72-15-15v-14.3c-10.566 0-20.976-1.144-33.17-9.6-6.8-4.72-8.49-14.07-3.77-20.87 4.72-6.81 14.07-8.5 20.87-3.78 3.6 2.52 8.071 4.192 12.52 4.25h35.37c8.353 0 15.2-6.744 15.2-15.21 0-8.38-6.82-15.2-15.2-15.2-14.882 0-17.949 0-33.63 0-24.93 0-45.21-20.28-45.21-45.2 0-23.359 17.975-45.2 47.02-45.2v-14.31c0-8.28 6.72-15 15-15 8.29 0 15 6.72 15 15z"/></svg>