<svg id="Capa_1" enable-background="new 0 0 512 512" height="512" viewBox="0 0 512 512" width="512" xmlns="http://www.w3.org/2000/svg"><g><path d="m226 451h60c8.284 0 15-6.716 15-15s-6.716-15-15-15h-60c-8.284 0-15 6.716-15 15s6.716 15 15 15z"/><path d="m497 0h-241c-8.284 0-15 6.716-15 15v120c0 8.284 6.716 15 15 15h105v30h-150v-45c0-8.284-6.716-15-15-15h-90c-8.284 0-15 6.716-15 15v45h-46c-7.338 0-13.599 5.309-14.798 12.547l-30 181c-.02.121-.202 1.556-.202 2.453v121c0 8.284 6.716 15 15 15h482c8.284 0 15-6.716 15-15v-121c0-.683-.146-2.113-.202-2.453l-30-181c-1.199-7.238-7.46-12.547-14.798-12.547h-76v-30h106c8.284 0 15-6.716 15-15v-120c0-8.284-6.716-15-15-15zm-376 150h60v151h-60zm361 332h-452v-91h452zm-2.691-121h-446.618l25.028-151h33.281v91h-15c-8.284 0-15 6.716-15 15s6.716 15 15 15h150c8.284 0 15-6.716 15-15s-6.716-15-15-15h-15v-91h243.281zm2.691-241h-211v-90h211z"/><path d="m316 241h-30c-8.284 0-15 6.716-15 15s6.716 15 15 15h30c8.284 0 15-6.716 15-15s-6.716-15-15-15z"/><path d="m316 301h-30c-8.284 0-15 6.716-15 15s6.716 15 15 15h30c8.284 0 15-6.716 15-15s-6.716-15-15-15z"/><path d="m361 256c0 8.284 6.716 15 15 15h30c8.284 0 15-6.716 15-15s-6.716-15-15-15h-30c-8.284 0-15 6.716-15 15z"/><path d="m406 301h-30c-8.284 0-15 6.716-15 15s6.716 15 15 15h30c8.284 0 15-6.716 15-15s-6.716-15-15-15z"/><circle cx="436" cy="75" r="15"/><circle cx="376" cy="75" r="15"/></g></svg>