<svg id="Layer_3" enable-background="new 0 0 64 64" height="512" viewBox="0 0 64 64" width="512" xmlns="http://www.w3.org/2000/svg"><g><path d="m45 6c0-1.125.373-2.164 1.002-3h-40.002c-1.654 0-3 1.346-3 3v1h42z"/><path d="m53 55v-49c0-1.654-1.346-3-3-3s-3 1.346-3 3v2c0 .553-.447 1-1 1h-35v49c0 1.654 1.346 3 3 3s3-1.346 3-3v-2c0-.553.447-1 1-1zm-2-2h-2v-2h2zm0-4h-34v-2h34zm0-4h-2v-2h2zm0-4h-34v-2h34zm0-4h-2v-2h2zm0-6v2h-34v-2zm-20.148-19.476-8 13c-.16.261-.431.433-.735.469-.039.005-.078.007-.117.007-.264 0-.519-.104-.707-.293l-4-4 1.414-1.414 3.104 3.104 7.337-11.922zm-8.852-.524c1.527 0 3.035.39 4.36 1.126l-.971 1.748c-1.029-.571-2.201-.874-3.389-.874-3.859 0-7 3.141-7 7s3.141 7 7 7 7-3.141 7-7c0-.909-.171-1.792-.509-2.624l1.854-.752c.434 1.072.655 2.208.655 3.376 0 4.963-4.037 9-9 9s-9-4.037-9-9 4.037-9 9-9zm-9 20h2v2h-2zm0 4h34v2h-34zm0 4h2v2h-2zm0 4h34v2h-34zm0 4h2v2h-2zm0 6v-2h34v2z"/><path d="m19 57v1c0 1.125-.373 2.164-1.002 3h40.002c1.654 0 3-1.346 3-3v-1z"/></g></svg>