<?xml version="1.0"?>
<svg xmlns="http://www.w3.org/2000/svg" id="outline" viewBox="0 0 512 512" width="512" height="512"><path d="M488,295.93018H392V240h64a8.00008,8.00008,0,0,0,8-8V104a8.00008,8.00008,0,0,0-8-8H256a8.00008,8.00008,0,0,0-8,8V232a8.00008,8.00008,0,0,0,8,8h72v32H288a8.00008,8.00008,0,0,0-8,8v15.93018H243.73511A31.79065,31.79065,0,0,0,248,280V264a8.00008,8.00008,0,0,0-8-8h-8.9375l-5.13965-41.11572a40.18653,40.18653,0,0,0-19.8457-29.76807L172.7356,166.06384A31.80027,31.80027,0,0,0,176,152V114.42236A26.42138,26.42138,0,0,0,134.92188,92.438L115.5625,105.34375A7.99943,7.99943,0,0,0,112,112v40H88a72.08156,72.08156,0,0,0-72,72l-.07031,112A8.07,8.07,0,0,0,24,344.06982H42.61182l29.96045,74.90137A7.99975,7.99975,0,0,0,80,424H432a7.99975,7.99975,0,0,0,7.42773-5.02881l29.96045-74.90137H488A8.07,8.07,0,0,0,496.07031,336V304A8.07,8.07,0,0,0,488,295.93018Zm-144,0V176h32V295.93018ZM264,224V112H448V224H392V168a8.00008,8.00008,0,0,0-8-8H336a8.00008,8.00008,0,0,0-8,8v56Zm32,64h32v7.93018H296ZM105.18872,264.61646l79.43384,21.66369a31.77028,31.77028,0,0,0,3.64233,9.65H91.24365L76.9021,281.58838ZM232,280a16.01439,16.01439,0,0,1-14.62183,15.93018h-2.75634A16.01439,16.01439,0,0,1,200,280v-8h32Zm-21.9541-63.13135L214.9375,256H200V224H184v45.526l-32-8.72729V208H136v48.43506l-24-6.54541V224H96v27.47046L73.5459,264.94287l4.77246-47.73144A24.047,24.047,0,0,1,90.292,198.76123l35.64185-20.36694A31.86063,31.86063,0,0,0,136,182.9873V200h16V182.9873a31.86063,31.86063,0,0,0,10.06616-4.593l36.07349,20.61352A24.11367,24.11367,0,0,1,210.0459,216.86865ZM144,168a16.01833,16.01833,0,0,1-16-16V136h32v16A16.01833,16.01833,0,0,1,144,168Zm-16-51.71826L143.79785,105.75A10.42171,10.42171,0,0,1,160,114.42236V120H128ZM88,168h23.876L82.35449,184.86914a40.07113,40.07113,0,0,0-19.956,30.75L56.04,279.2041a7.9991,7.9991,0,0,0,2.30273,6.45264l10.27344,10.27344H32V224A56.06322,56.06322,0,0,1,88,168ZM32.07031,312.06982H160v15.86036H32.07031Zm27.77393,32h70.76758L156.18384,408H85.416ZM426.584,408H173.41626l-25.572-63.93018H452.15576Zm53.34571-80.06982H176V312.06982H479.92969Z"/></svg>
