<svg id="Capa_1" enable-background="new 0 0 512 512" height="512" viewBox="0 0 512 512" width="512" xmlns="http://www.w3.org/2000/svg"><g><path d="m166 91h15v31c0 8.291 6.709 15 15 15h60c8.291 0 15-6.709 15-15v-31h15c6.064 0 11.543-3.647 13.857-9.258 2.329-5.61 1.04-12.056-3.252-16.348l-60-61c-5.859-5.859-15.352-5.859-21.211 0l-60 61c-4.292 4.292-5.581 10.737-3.252 16.348 2.315 5.611 7.794 9.258 13.858 9.258z"/><path d="m361 272c-66.275 0-120 53.725-120 120 0 66.273 53.725 120 120 120s120-53.727 120-120c0-66.275-53.725-120-120-120zm25.135 173.983c-3.249 1.624-6.655 2.903-10.14 3.871v4.145c0 8.284-6.716 15-15 15s-15-6.716-15-15v-3.676c-6.244-1.572-12.067-4.215-17-7.914-6.627-4.97-7.971-14.372-3-21 4.971-6.626 14.373-7.971 21-3 6 4.5 17.54 4.834 25.723.742 3.289-1.645 5.064-3.625 5.064-4.652 0-1.795 0-2.072-1.996-3.137-3.914-2.089-10.834-3.373-17.527-4.614-8.935-1.658-18.174-3.372-26.18-7.645-11.691-6.24-17.871-16.477-17.871-29.604 0-13.142 7.881-24.62 21.622-31.49 3.257-1.629 6.671-2.918 10.165-3.887v-4.123c0-8.284 6.716-15 15-15s15 6.716 15 15v3.673c6.245 1.573 12.067 4.218 17 7.917 6.628 4.971 7.971 14.373 3 21s-14.371 7.971-21 3c-6.009-4.507-17.559-4.841-25.749-.748-3.308 1.654-5.038 3.595-5.038 4.657 0 1.796 0 2.072 1.996 3.138 3.914 2.089 10.835 3.373 17.527 4.614 8.935 1.658 18.174 3.372 26.181 7.645 11.69 6.24 17.87 16.477 17.87 29.604.001 13.13-7.89 24.605-21.647 31.484z"/><path d="m106 212h270c8.284 0 15-6.716 15-15v-15c0-8.284-6.716-15-15-15h-270c-8.284 0-15 6.716-15 15v15c0 8.284 6.716 15 15 15z"/><path d="m61 482v15c0 8.284 6.716 15 15 15h195.928c-16.273-12.116-29.797-27.402-40.062-45h-155.866c-8.284 0-15 6.716-15 15z"/><path d="m61 332v15c0 8.284 6.716 15 15 15h138.032c3.303-16.208 9.75-31.141 17.834-45h-155.866c-8.284 0-15 6.716-15 15z"/><path d="m46 437h172.659c-4.539-14.297-7.659-29.22-7.659-45h-165c-8.284 0-15 6.716-15 15v15c0 8.284 6.716 15 15 15z"/><path d="m46 287h208.149c27.231-27.709 65.026-45 106.851-45h-315c-8.284 0-15 6.716-15 15v15c0 8.284 6.716 15 15 15z"/></g></svg>